# VLBI station parameters Format 2022.04.03
#
# Created on 2021.01.07
# 
# 2021.04.26 pet  SDS gs0011 provided Tsys(elevation)
# 2021.07.02 pet  Added STOW_AZIM and STOW_ELEV fields
# 2021.08.27 pet  Adjusted slewing parameters using results of SDS gs0017. 
#                 NB: Scatter for elevation arcs is -+ 2.5 sec.
# 2022.01.28 pet  Added BACKEND definition
# 2022.04.03 pet  Added peculiar clock offset
#                 Knocked out frequency range: [9.380, 9.440] GHz.
# 2023.03.16 pet  Added results of gain measurement on 2023.03.15
#
SHORT_NAME:   GGAO12M   char       Gs
LAST_UPDATE:  GGAO12M   char       2021.08.27
COORD:        GGAO12M   meters      1130794.763    -4831233.803     3994217.042
MOUNT:        GGAO12M   char       ALTAZ
SLEW_AZ:      GGAO12M   deg/sec    5.00
SLEW_EL:      GGAO12M   deg/sec    1.23
ACCL_AZ:      GGAO12M   deg/sec^2  1.33
ACCL_EL:      GGAO12M   deg/sec^2  1.41
TSETTLE_AZ:   GGAO12M   sec        2.35
TSETTLE_EL:   GGAO12M   sec        2.04
EL_MIN:       GGAO12M   deg        7.0
EL_MAX:       GGAO12M   deg       87.2
AZ_RANGE:     GGAO12M   deg      -180.0    0.0  180.0  360.0
RECORDER:     GGAO12M   char      mark6
BACKEND:      GGAO12M   char      rdbe
SETMODE:      GGAO12M   sec           4.0
PREOB:        GGAO12M   sec           3.0
POSTOB:       GGAO12M   sec           2.0
HOR_AZIM:     GGAO12M   deg        0.0  15.0  58.0  90.0 130.0 149.99 150.0 234.0 234.01 360.0
HOR_ELEV:     GGAO12M   deg        6.0   7.0   7.0   7.0   7.0   7.0   42.0  42.0   7.0    7.0
STOW_AZIM:    GGAO12M   deg        90.0
STOW_ELEV:    GGAO12M   deg        50.0
#
CLOCK_DATES:  GGAO12M   sec        2020.06.11   2049.12.31
CLOCK_OFFSET: GGAO12M   sec        0.602E-6
#
TSYS_DATES:   GGAO12M   char      2021.06.01  2049.12.31
#
TSYS_FREQS:    GGAO12M   GHz          3.000    3.032
TSYS_ELEVS:    GGAO12M   deg            3.0    8.0   15.0   20.0   25.0   30.0   45.0   70.0   80.0   90.0 32.0
TSYS_POLVALS:  GGAO12M   K     H       79.6   86.7   87.5   85.8   84.0   82.7   82.4   84.6   85.2   76.6 32.0
#
TSYS_FREQS:    GGAO12M   GHz          3.000    3.032 32.0
TSYS_ELEVS:    GGAO12M   deg            3.0    8.0   15.0   20.0   25.0   30.0   45.0   70.0   80.0   90.0 32.0
TSYS_POLVALS:  GGAO12M   K     V       72.7   68.8   65.0   62.9   61.0   59.6   58.3   62.0   63.0   69.6
#
TSYS_FREQS:    GGAO12M   GHz          5.240    5.272
TSYS_ELEVS:    GGAO12M   deg            3.0    8.0   15.0   20.0   25.0   30.0   45.0   70.0   80.0   90.0
TSYS_POLVALS:  GGAO12M   K     H       88.0   71.9   64.5   63.1   62.3   61.2   58.6   62.6   59.3   67.0
#
TSYS_FREQS:    GGAO12M   GHz          5.240    5.272
TSYS_ELEVS:    GGAO12M   deg            3.0    8.0   15.0   20.0   25.0   30.0   45.0   70.0   80.0   90.0
TSYS_POLVALS:  GGAO12M   K     V       89.9   74.4   67.8   66.9   66.5   65.8   63.7   68.7   65.1   67.0
#
TSYS_FREQS:    GGAO12M   GHz          6.360    6.392
TSYS_ELEVS:    GGAO12M   deg            3.0    8.0   15.0   20.0   25.0   30.0   45.0   70.0   80.0   90.0
TSYS_POLVALS:  GGAO12M   K     H       95.9   69.4   60.3   60.4   60.7   59.7   55.6   63.9   56.7   66.6
#
TSYS_FREQS:    GGAO12M   GHz          6.360    6.392
TSYS_ELEVS:    GGAO12M   deg            3.0    8.0   15.0   20.0   25.0   30.0   45.0   70.0   80.0   90.0
TSYS_POLVALS:  GGAO12M   K     V      103.6   77.9   70.8   72.4   73.7   73.5   68.7   76.2   70.4   77.7
#
TSYS_FREQS:    GGAO12M   GHz         10.200   10.232
TSYS_ELEVS:    GGAO12M   deg            3.0    8.0   15.0   20.0   25.0   30.0   45.0   70.0   80.0   90.0
TSYS_POLVALS:  GGAO12M   K     H      108.4   75.6   69.1   73.0   76.2   76.4   68.9   77.1   69.1   75.1
#
TSYS_FREQS:    GGAO12M   GHz         10.200   10.232
TSYS_ELEVS:    GGAO12M   deg            3.0    8.0   15.0   20.0   25.0   30.0   45.0   70.0   80.0   90.0
TSYS_POLVALS:  GGAO12M   K     V      110.5   90.3   85.7   88.6   91.7   93.0   87.3   87.3   84.1   60.0
#
GAIN_DATES:   GGAO12M   char      2021.06.01  2049.12.31
#
GAIN_FREQS:    GGAO12M   GHz          3.000    3.032
GAIN_ELEVS:    GGAO12M   deg            3.0    8.0   15.0   20.0   25.0   30.0   45.0   70.0   80.0   90.0
GAIN_POLVALS:  GGAO12M   K/Jy  H      0.018  0.018  0.018  0.018  0.017  0.017  0.017  0.017  0.017  0.017
#
GAIN_FREQS:    GGAO12M   GHz          3.000    3.032
GAIN_ELEVS:    GGAO12M   deg            3.0    8.0   15.0   20.0   25.0   30.0   45.0   70.0   80.0   90.0
GAIN_POLVALS:  GGAO12M   K/Jy  V      0.017  0.017  0.017  0.017  0.018  0.018  0.018  0.017  0.017  0.016
#
GAIN_FREQS:    GGAO12M   GHz          5.240    5.272
GAIN_ELEVS:    GGAO12M   deg            3.0    8.0   15.0   20.0   25.0   30.0   45.0   70.0   80.0   90.0
GAIN_POLVALS:  GGAO12M   K/Jy  H      0.018  0.018  0.019  0.019  0.019  0.019  0.019  0.018  0.018  0.017
#
GAIN_FREQS:    GGAO12M   GHz          5.240    5.272
GAIN_ELEVS:    GGAO12M   deg            3.0    8.0   15.0   20.0   25.0   30.0   45.0   70.0   80.0   90.0
GAIN_POLVALS:  GGAO12M   K/Jy  V      0.016  0.017  0.017  0.018  0.018  0.018  0.018  0.017  0.016  0.015
#
GAIN_FREQS:    GGAO12M   GHz          6.360    6.392
GAIN_ELEVS:    GGAO12M   deg            3.0    8.0   15.0   20.0   25.0   30.0   45.0   70.0   80.0   90.0
GAIN_POLVALS:  GGAO12M   K/Jy  H      0.018  0.018  0.018  0.019  0.019  0.019  0.019  0.018  0.018  0.017
#
GAIN_FREQS:    GGAO12M   GHz          6.360    6.392
GAIN_ELEVS:    GGAO12M   deg            3.0    8.0   15.0   20.0   25.0   30.0   45.0   70.0   80.0   90.0
GAIN_POLVALS:  GGAO12M   K/Jy  V      0.018  0.019  0.020  0.021  0.021  0.021  0.022  0.020  0.019  0.017
#
GAIN_FREQS:    GGAO12M   GHz         10.200   10.232
GAIN_ELEVS:    GGAO12M   deg            3.0    8.0   15.0   20.0   25.0   30.0   45.0   70.0   80.0   90.0
GAIN_POLVALS:  GGAO12M   K/Jy  H      0.017  0.017  0.017  0.018  0.018  0.018  0.018  0.018  0.017  0.017
#
GAIN_FREQS:    GGAO12M   GHz         10.200   10.232
GAIN_ELEVS:    GGAO12M   deg            3.0    8.0   15.0   20.0   25.0   30.0   45.0   70.0   80.0   90.0
GAIN_POLVALS:  GGAO12M   K/Jy  V      0.019  0.020  0.021  0.021  0.021  0.021  0.021  0.020  0.018  0.017
#
GAIN_DATES:   GGAO12M   char      2023.03.16  2049.12.31
#
GAIN_FREQS:   GGAO12M   GHz       3.000  3.500
GAIN_ELEVS:   GGAO12M   deg            3.0    8.0   15.0   20.0   25.0   30.0   45.0   70.0   80.0   90.0
GAIN_POLVALS: GGAO12M   K/Jy  H      0.013  0.013  0.019  0.021  0.020  0.019  0.015  0.021  0.024  0.018
GAIN_POLVALS: GGAO12M   K/Jy  V      0.017  0.017  0.018  0.018  0.017  0.017  0.017  0.018  0.019  0.019
#
GAIN_FREQS:   GGAO12M   GHz          5.240    5.752
GAIN_ELEVS:   GGAO12M   deg            3.0    8.0   15.0   20.0   25.0   30.0   45.0   70.0   80.0   90.0
GAIN_POLVALS: GGAO12M   K/Jy  H      0.028  0.028  0.028  0.029  0.029  0.029  0.029  0.030  0.030  0.030
GAIN_POLVALS: GGAO12M   K/Jy  V      0.029  0.028  0.027  0.026  0.026  0.026  0.025  0.027  0.028  0.031
#
GAIN_FREQS:   GGAO12M   GHz          6.360    6.872
GAIN_ELEVS:   GGAO12M   deg            3.0    8.0   15.0   20.0   25.0   30.0   45.0   70.0   80.0   90.0
GAIN_POLVALS: GGAO12M   K/Jy  H      0.034  0.034  0.035  0.035  0.035  0.035  0.036  0.037  0.038  0.039
GAIN_POLVALS: GGAO12M   K/Jy  V      0.034  0.034  0.033  0.032  0.032  0.032  0.032  0.034  0.036  0.039
#
GAIN_FREQS:   GGAO12M   GHz         10.200   10.712
GAIN_ELEVS:   GGAO12M   deg            3.0    8.0   15.0   20.0   25.0   30.0   45.0   70.0   80.0   90.0
GAIN_POLVALS: GGAO12M   K/Jy  H      0.039  0.037  0.036  0.035  0.034  0.034  0.033  0.036  0.039  0.042
GAIN_POLVALS: GGAO12M   K/Jy  V      0.032  0.031  0.029  0.029  0.028  0.027  0.027  0.029  0.031  0.034
